<svg width="512" height="512" viewBox="0 0 512 512" fill="none" xmlns="http://www.w3.org/2000/svg">
<rect width="512" height="512" fill="#F5F5F5"/>
<g clip-path="url(#clip0_0_1)">
<rect width="512" height="512" fill="black"/>
<path d="M235.223 157.762L233.351 86.655C210.493 85.704 194.457 62.534 190.653 39.684C186.477 14.619 159.235 -5.07401 130.67 19.686C102.096 44.446 32.58 93.008 6.867 99.673C-18.844 106.339 34.481 124.433 54.486 116.817C31.94 137.125 65.275 153.311 95.267 137.601C85.273 155.695 127.652 160.935 152.404 139.987C180.976 121.892 218.875 142.84 235.223 157.762Z" fill="white"/>
<path d="M505.133 99.673C479.421 93.008 409.911 44.446 381.34 19.685C352.775 -5.07501 325.525 14.617 321.349 39.683C317.544 62.533 301.508 85.703 278.665 86.654L276.785 157.761C293.134 142.84 331.039 121.892 359.604 139.986C384.356 160.934 426.736 155.695 416.734 137.6C446.726 153.31 480.061 137.124 457.523 116.816C477.519 124.433 530.844 106.339 505.133 99.673Z" fill="white"/>
<path d="M256 81.422C276.257 81.422 292.679 65.0002 292.679 44.743C292.679 24.4857 276.257 8.064 256 8.064C235.743 8.064 219.321 24.4857 219.321 44.743C219.321 65.0002 235.743 81.422 256 81.422Z" fill="white"/>
<path d="M204.117 236.545C213.717 234.048 223.705 231.507 233.313 229.055C214.096 224.314 200.26 221.602 193.059 210.514C190.48 206.539 190.651 202.14 191.662 199.219C193.742 193.289 199.747 190.71 217.062 184.914C227.346 181.481 232.637 175.811 231.574 169.338C230.816 164.724 230.482 161.84 222.902 160.703C218.539 160.065 213.672 158.333 208.597 155.836C202.63 152.916 196.745 153.844 190.31 153.844C189.381 153.844 188.408 153.926 187.434 154.06C174.103 156.134 164.242 163.534 158.869 171.575C147.656 188.421 143.583 215.381 169.109 235.994C173.383 239.464 178.465 242.296 184.091 244.755C189.805 241.242 196.448 238.492 204.117 236.545Z" fill="white"/>
<path d="M263.194 453.828C272.163 464.871 275.291 475.408 272.244 482.646C271.739 484.214 274.117 485.566 274.92 483.835C275.336 483.582 276.02 482.519 278.636 476.508C284.61 462.969 283.51 451.503 278.934 441.887C272.542 445.87 267.34 449.935 263.194 453.828Z" fill="white"/>
<path d="M325.912 257.159C315.122 261.261 303.188 264.226 291.461 267.14C287.909 268.031 284.402 268.923 280.879 269.807C279.869 270.067 278.813 270.357 277.788 270.617C281.429 271.583 284.944 272.519 288.287 273.411C300.987 276.792 311.569 284.579 305.223 303.752C302.087 313.234 293.2 317.848 275.083 323.6C272.081 324.536 268.826 325.547 265.311 326.602C262.301 327.449 259.136 328.386 255.74 329.396C255.74 329.396 255.74 329.396 255.702 329.396C252.864 330.206 249.906 331.053 246.814 331.937C244.822 332.531 242.75 333.119 240.631 333.757C232.086 336.291 224.974 339.851 219.215 344.168C215.871 346.62 212.958 349.377 210.498 352.334C202.674 361.69 198.988 372.985 198.735 384.711C198.349 400.413 207.785 417.007 223.198 424.281C225.145 425.218 227.047 426.191 228.905 427.164C233.096 421.658 238.64 416.158 245.796 410.697C245.625 410.615 245.461 410.489 245.283 410.407L242.704 408.921C234.627 404.135 226.838 397.15 225.397 389.831C224.089 383.276 223.45 373.832 240.72 364.736C242.666 363.718 244.866 362.663 247.319 361.689C248.969 360.968 250.789 360.248 252.699 359.571C253.71 359.192 254.683 358.85 255.701 358.515C258.793 357.371 261.839 356.271 264.797 355.171C274.74 351.448 283.887 347.852 292.181 344.166C296.075 342.427 299.753 340.695 303.231 338.919C327.308 326.814 341.531 313.521 341.531 294.942C341.531 277.765 336.322 265.408 325.912 257.159Z" fill="white"/>
<path d="M263.104 453.955C263.104 453.911 263.148 453.866 263.193 453.829C263.193 453.785 263.148 453.74 263.104 453.703V453.955Z" fill="white"/>
<path d="M270.684 364.738C287.954 373.878 287.27 383.278 286.006 389.833C284.565 397.153 276.776 404.138 268.692 408.923L266.069 410.409C265.899 410.491 265.735 410.617 265.556 410.699C265.014 411.041 264.419 411.375 263.825 411.754C261.291 413.24 258.497 414.98 255.703 416.963C253.251 418.613 250.791 420.478 248.376 422.507C244.78 425.509 241.354 428.853 238.352 432.628C236.064 435.504 234.072 438.588 232.512 441.887C227.897 451.458 226.798 462.969 232.728 476.508C235.388 482.52 236.065 483.582 236.488 483.835C237.291 485.566 239.661 484.214 239.148 482.646C236.109 475.408 239.2 464.871 248.17 453.866C248.423 454.082 248.675 454.29 248.928 454.55L248.883 452.982C250.875 450.612 253.163 448.196 255.705 445.826C258.031 443.626 260.573 441.471 263.367 439.354C266.324 437.073 269.542 434.829 273.012 432.629C275.977 430.764 279.113 428.943 282.457 427.167C284.315 426.194 286.217 425.221 288.209 424.284C303.576 417.01 313.043 400.416 312.671 384.714C312.374 372.988 308.733 361.693 300.901 352.337C291.669 356.616 281.518 360.681 270.684 364.738Z" fill="white"/>
<path d="M323.964 154.061C322.998 153.927 322.018 153.845 321.052 153.845C314.616 153.845 308.732 152.916 302.802 155.837C297.726 158.334 292.859 160.065 288.504 160.704C280.924 161.842 280.546 164.725 279.824 169.339C278.769 175.811 284.06 181.481 294.344 184.915C311.652 190.711 317.663 193.29 319.729 199.22C320.754 202.14 320.918 206.54 318.332 210.515C311.102 221.603 297.258 224.315 278.048 229.056C277.372 229.226 276.651 229.39 275.975 229.561C273.226 230.237 270.216 231.002 266.953 231.85C263.446 232.734 259.686 233.662 255.703 234.68L245.166 237.348C232.89 240.476 219.558 243.91 206.859 247.165C203.82 247.967 200.937 248.859 198.231 249.959C198.231 249.959 198.231 249.959 198.186 249.959C193.356 251.869 189.083 254.276 185.486 257.159C175.075 265.408 169.873 277.765 169.873 294.946C169.873 313.524 184.089 326.818 208.173 338.96C215.664 332.28 225.146 327.033 236.315 323.6C218.205 317.848 209.318 313.234 206.137 303.752C199.792 284.579 210.373 276.792 223.066 273.411C226.41 272.519 229.969 271.582 233.61 270.617C237.504 269.636 241.524 268.581 245.671 267.525C248.97 266.678 252.314 265.831 255.702 264.939C259.254 264.055 262.806 263.118 266.41 262.19C270.297 261.224 274.19 260.205 278.084 259.187C289.81 256.14 301.997 253.428 313.129 249.958H313.174C318.122 248.398 322.908 246.703 327.308 244.756C332.94 242.297 338.016 239.465 342.289 235.995C367.815 215.381 363.749 188.421 352.529 171.576C347.164 163.536 337.258 156.135 323.964 154.061Z" fill="white"/>
<path d="M249.268 474.227V474.272L249.357 478.545L249.476 487.217L249.773 503.937H262.221L262.48 488.614L263.105 453.956C260.103 456.75 257.651 459.499 255.703 462.086C252.017 466.9 249.988 471.135 249.268 474.227Z" fill="white"/>
<path d="M255.659 403.84C257.227 402.874 258.876 401.856 260.571 400.882L263.149 399.396C263.446 399.232 263.744 399.062 264.041 398.846L264.465 373.878L264.591 366.982C261.916 367.956 259.174 368.974 256.417 369.94C256.165 370.029 255.912 370.111 255.703 370.2C252.486 371.382 249.773 372.481 247.529 373.581L247.96 399.189L248.124 408.96C250.457 407.229 252.954 405.535 255.659 403.84Z" fill="white"/>
<path d="M252.188 318.948C253.414 318.606 254.558 318.265 255.703 317.931C259.255 316.868 262.517 315.902 265.52 315.011L266.107 278.993L266.241 273.62C263.952 274.214 261.708 274.764 259.464 275.359C258.2 275.694 256.93 275.991 255.704 276.325C252.36 277.172 249.105 278.019 245.88 278.821L246.519 315.218L246.608 320.554C248.51 320.003 250.367 319.454 252.188 318.948Z" fill="white"/>
<path d="M242.201 88.014L244.869 220.591L244.95 226.045C248.673 225.116 252.27 224.187 255.703 223.295C259.805 222.285 263.654 221.304 267.17 220.419L269.837 88.013C265.394 89.203 260.779 89.878 256.001 89.878C251.215 89.879 246.607 89.204 242.201 88.014Z" fill="white"/>
</g>
<defs>
<clipPath id="clip0_0_1">
<rect width="512" height="512" fill="white"/>
</clipPath>
</defs>
</svg>
